<?xml version="1.0" encoding="utf-8"?>
<!-- Generator: Adobe Illustrator 19.2.1, SVG Export Plug-In . SVG Version: 6.00 Build 0)  -->
<svg version="1.1" id="Capa_1" xmlns="http://www.w3.org/2000/svg" xmlns:xlink="http://www.w3.org/1999/xlink" x="0px" y="0px"
	 viewBox="0 0 244.3 130.3" style="enable-background:new 0 0 244.3 130.3;" xml:space="preserve">
<style type="text/css">
	.st0{clip-path:url(#SVGID_3_);fill:url(#SVGID_4_);}
	.st1{clip-path:url(#SVGID_6_);fill:url(#SVGID_7_);}
	.st2{clip-path:url(#SVGID_10_);fill:url(#SVGID_11_);}
	.st3{clip-path:url(#SVGID_14_);fill:url(#SVGID_15_);}
	.st4{clip-path:url(#SVGID_18_);fill:url(#SVGID_19_);}
	.st5{clip-path:url(#SVGID_22_);fill:url(#SVGID_23_);}
	.st6{clip-path:url(#SVGID_25_);fill:url(#SVGID_26_);}
	.st7{clip-path:url(#SVGID_28_);fill:url(#SVGID_29_);}
	.st8{clip-path:url(#SVGID_32_);fill:url(#SVGID_33_);}
	.st9{clip-path:url(#SVGID_36_);fill:url(#SVGID_37_);}
	.st10{fill:url(#SVGID_38_);}
	.st11{clip-path:url(#SVGID_41_);fill:url(#SVGID_42_);}
	.st12{clip-path:url(#SVGID_45_);fill:url(#SVGID_46_);}
	.st13{clip-path:url(#SVGID_49_);fill:url(#SVGID_50_);}
	.st14{clip-path:url(#SVGID_53_);fill:url(#SVGID_54_);}
	.st15{clip-path:url(#SVGID_57_);fill:url(#SVGID_58_);}
	.st16{clip-path:url(#SVGID_61_);fill:url(#SVGID_62_);}
	.st17{clip-path:url(#SVGID_65_);fill:url(#SVGID_66_);}
	.st18{clip-path:url(#SVGID_69_);fill:url(#SVGID_70_);}
	.st19{clip-path:url(#SVGID_73_);fill:url(#SVGID_74_);}
	.st20{clip-path:url(#SVGID_77_);fill:url(#SVGID_78_);}
	.st21{clip-path:url(#SVGID_81_);fill:url(#SVGID_82_);}
	.st22{clip-path:url(#SVGID_85_);fill:url(#SVGID_86_);}
	.st23{clip-path:url(#SVGID_89_);fill:url(#SVGID_90_);}
	.st24{clip-path:url(#SVGID_93_);fill:url(#SVGID_94_);}
	.st25{clip-path:url(#SVGID_97_);fill:url(#SVGID_98_);}
	.st26{clip-path:url(#SVGID_100_);fill:url(#SVGID_101_);}
	.st27{clip-path:url(#SVGID_104_);fill:url(#SVGID_105_);}
	.st28{clip-path:url(#SVGID_108_);fill:url(#SVGID_109_);}
	.st29{clip-path:url(#SVGID_111_);fill:#FCCB12;}
	.st30{clip-path:url(#SVGID_111_);fill:#BF9900;}
	.st31{clip-path:url(#SVGID_111_);fill:#C7A016;}
	.st32{clip-path:url(#SVGID_111_);fill:#686C4D;}
	.st33{clip-path:url(#SVGID_111_);fill:url(#SVGID_112_);}
	.st34{clip-path:url(#SVGID_111_);fill:url(#SVGID_113_);}
	.st35{clip-path:url(#SVGID_111_);fill:url(#SVGID_114_);}
	.st36{clip-path:url(#SVGID_111_);fill:url(#SVGID_115_);}
	.st37{clip-path:url(#SVGID_111_);fill:url(#SVGID_116_);}
	.st38{clip-path:url(#SVGID_118_);fill:#3162A5;}
	.st39{clip-path:url(#SVGID_118_);fill:#222C5F;}
	.st40{clip-path:url(#SVGID_118_);fill:#EB1C24;}
	.st41{clip-path:url(#SVGID_118_);fill:#A71013;}
	.st42{clip-path:url(#SVGID_118_);fill:#FFFFFF;}
</style>
<g>
	<g>
		<defs>
			<polygon id="SVGID_1_" points="7.2,35.6 17.5,52.9 20.6,49.7 10.3,32.3 			"/>
		</defs>
		<linearGradient id="SVGID_2_" gradientUnits="userSpaceOnUse" x1="7.2252" y1="42.6096" x2="20.6412" y2="42.6096">
			<stop  offset="0" style="stop-color:#1B2F61"/>
			<stop  offset="1" style="stop-color:#186AA6"/>
		</linearGradient>
		<use xlink:href="#SVGID_1_"  style="overflow:visible;fill:url(#SVGID_2_);"/>
		<clipPath id="SVGID_3_">
			<use xlink:href="#SVGID_1_"  style="overflow:visible;"/>
		</clipPath>
		<linearGradient id="SVGID_4_" gradientUnits="userSpaceOnUse" x1="2.0874" y1="42.6096" x2="25.779" y2="42.6096">
			<stop  offset="0" style="stop-color:#1B2F61"/>
			<stop  offset="1" style="stop-color:#186AA6"/>
		</linearGradient>
		<polygon class="st0" points="19.7,29 25.8,51.5 8.1,56.3 2.1,33.7 		"/>
	</g>
	<g>
		<defs>
			<polygon id="SVGID_5_" points="20.6,49.7 17.5,52.9 21.3,51.3 24.5,47.9 			"/>
		</defs>
		<clipPath id="SVGID_6_">
			<use xlink:href="#SVGID_5_"  style="overflow:visible;"/>
		</clipPath>
		
			<linearGradient id="SVGID_7_" gradientUnits="userSpaceOnUse" x1="0.5174" y1="722.5209" x2="1.5174" y2="722.5209" gradientTransform="matrix(-1.2848 -65.5209 -65.5209 1.2848 47362.6172 -808.2939)">
			<stop  offset="0" style="stop-color:#161644"/>
			<stop  offset="1" style="stop-color:#2250A2"/>
		</linearGradient>
		<polygon class="st1" points="17.5,53.1 17.4,47.9 24.5,47.7 24.6,52.9 		"/>
	</g>
	<g>
		<defs>
			<polygon id="SVGID_8_" points="159.5,22 159.1,24.3 159.1,24.3 163,22.2 163.3,19.8 			"/>
		</defs>
		<linearGradient id="SVGID_9_" gradientUnits="userSpaceOnUse" x1="159.0902" y1="22.0541" x2="163.3202" y2="22.0541">
			<stop  offset="0" style="stop-color:#1B2F61"/>
			<stop  offset="1" style="stop-color:#186AA6"/>
		</linearGradient>
		<use xlink:href="#SVGID_8_"  style="overflow:visible;fill:url(#SVGID_9_);"/>
		<clipPath id="SVGID_10_">
			<use xlink:href="#SVGID_8_"  style="overflow:visible;"/>
		</clipPath>
		<linearGradient id="SVGID_11_" gradientUnits="userSpaceOnUse" x1="157.9231" y1="22.0541" x2="164.4873" y2="22.0541">
			<stop  offset="0" style="stop-color:#1B2F61"/>
			<stop  offset="1" style="stop-color:#186AA6"/>
		</linearGradient>
		<polygon class="st2" points="164.5,20.2 163,25.4 157.9,24 159.4,18.7 		"/>
	</g>
	<g>
		<defs>
			<polygon id="SVGID_12_" points="130.9,6.4 115.1,24.5 119.1,22.4 134.7,4.4 			"/>
		</defs>
		<linearGradient id="SVGID_13_" gradientUnits="userSpaceOnUse" x1="115.1252" y1="14.4317" x2="134.6682" y2="14.4317">
			<stop  offset="0" style="stop-color:#1B2F61"/>
			<stop  offset="1" style="stop-color:#186AA6"/>
		</linearGradient>
		<use xlink:href="#SVGID_12_"  style="overflow:visible;fill:url(#SVGID_13_);"/>
		<clipPath id="SVGID_14_">
			<use xlink:href="#SVGID_12_"  style="overflow:visible;"/>
		</clipPath>
		<linearGradient id="SVGID_15_" gradientUnits="userSpaceOnUse" x1="108.0425" y1="14.4317" x2="141.7508" y2="14.4317">
			<stop  offset="0" style="stop-color:#1B2F61"/>
			<stop  offset="1" style="stop-color:#186AA6"/>
		</linearGradient>
		<polygon class="st3" points="141.8,7.3 131.8,31.4 108,21.6 118,-2.5 		"/>
	</g>
	<g>
		<defs>
			<polygon id="SVGID_16_" points="215.3,31.2 213.6,38.1 217.5,36 219.1,29 			"/>
		</defs>
		<linearGradient id="SVGID_17_" gradientUnits="userSpaceOnUse" x1="213.6252" y1="33.5376" x2="219.1302" y2="33.5376">
			<stop  offset="0" style="stop-color:#1B2F61"/>
			<stop  offset="1" style="stop-color:#186AA6"/>
		</linearGradient>
		<use xlink:href="#SVGID_16_"  style="overflow:visible;fill:url(#SVGID_17_);"/>
		<clipPath id="SVGID_18_">
			<use xlink:href="#SVGID_16_"  style="overflow:visible;"/>
		</clipPath>
		<linearGradient id="SVGID_19_" gradientUnits="userSpaceOnUse" x1="210.7379" y1="33.5377" x2="222.0174" y2="33.5377">
			<stop  offset="0" style="stop-color:#1B2F61"/>
			<stop  offset="1" style="stop-color:#186AA6"/>
		</linearGradient>
		<polygon class="st4" points="222,30.1 218.5,39.8 210.7,37 214.3,27.3 		"/>
	</g>
	<g>
		<defs>
			<polygon id="SVGID_20_" points="202.9,82.9 216,87.1 219.9,85.1 206.8,80.9 			"/>
		</defs>
		<linearGradient id="SVGID_21_" gradientUnits="userSpaceOnUse" x1="202.9092" y1="83.9692" x2="219.8562" y2="83.9692">
			<stop  offset="0" style="stop-color:#1B2F61"/>
			<stop  offset="1" style="stop-color:#186AA6"/>
		</linearGradient>
		<use xlink:href="#SVGID_20_"  style="overflow:visible;fill:url(#SVGID_21_);"/>
		<clipPath id="SVGID_22_">
			<use xlink:href="#SVGID_20_"  style="overflow:visible;"/>
		</clipPath>
		<linearGradient id="SVGID_23_" gradientUnits="userSpaceOnUse" x1="202.7877" y1="83.9692" x2="219.9777" y2="83.9692">
			<stop  offset="0" style="stop-color:#1B2F61"/>
			<stop  offset="1" style="stop-color:#186AA6"/>
		</linearGradient>
		<polygon class="st5" points="202.9,87.4 202.8,80.9 219.8,80.5 220,87.1 		"/>
	</g>
	<g>
		<defs>
			<polygon id="SVGID_24_" points="191.3,37.4 194.5,38.1 198.3,36.1 195.1,35.4 			"/>
		</defs>
		<clipPath id="SVGID_25_">
			<use xlink:href="#SVGID_24_"  style="overflow:visible;"/>
		</clipPath>
		
			<linearGradient id="SVGID_26_" gradientUnits="userSpaceOnUse" x1="-3.7493" y1="725.0716" x2="-2.7493" y2="725.0716" gradientTransform="matrix(19.5384 -18.2531 -18.2531 -19.5384 13497.748 14139.8506)">
			<stop  offset="0" style="stop-color:#161644"/>
			<stop  offset="1" style="stop-color:#2250A2"/>
		</linearGradient>
		<polygon class="st6" points="189.9,36.7 195,31.9 199.7,36.9 194.5,41.6 		"/>
	</g>
	<g>
		<defs>
			<polygon id="SVGID_27_" points="114.9,29.4 111.6,31.9 115.5,29.8 118.2,27.6 			"/>
		</defs>
		<clipPath id="SVGID_28_">
			<use xlink:href="#SVGID_27_"  style="overflow:visible;"/>
		</clipPath>
		
			<linearGradient id="SVGID_29_" gradientUnits="userSpaceOnUse" x1="0.5169" y1="722.5188" x2="1.5169" y2="722.5188" gradientTransform="matrix(-1.2859 -65.575 -65.575 1.2859 47495.7578 -811.8022)">
			<stop  offset="0" style="stop-color:#161644"/>
			<stop  offset="1" style="stop-color:#2250A2"/>
		</linearGradient>
		<polygon class="st7" points="111.6,32.1 111.5,27.6 118.2,27.5 118.3,31.9 		"/>
	</g>
	<g>
		<defs>
			<polygon id="SVGID_30_" points="202.8,77.8 202.9,82.9 206.8,80.9 206.6,75.7 			"/>
		</defs>
		<linearGradient id="SVGID_31_" gradientUnits="userSpaceOnUse" x1="202.7912" y1="79.3161" x2="206.7532" y2="79.3161">
			<stop  offset="0" style="stop-color:#1B2F61"/>
			<stop  offset="1" style="stop-color:#186AA6"/>
		</linearGradient>
		<use xlink:href="#SVGID_30_"  style="overflow:visible;fill:url(#SVGID_31_);"/>
		<clipPath id="SVGID_32_">
			<use xlink:href="#SVGID_30_"  style="overflow:visible;"/>
		</clipPath>
		<linearGradient id="SVGID_33_" gradientUnits="userSpaceOnUse" x1="202.6504" y1="79.3162" x2="206.8938" y2="79.3162">
			<stop  offset="0" style="stop-color:#1B2F61"/>
			<stop  offset="1" style="stop-color:#186AA6"/>
		</linearGradient>
		<polygon class="st8" points="202.8,83 202.7,75.7 206.8,75.6 206.9,82.9 		"/>
	</g>
	<g>
		<defs>
			<polygon id="SVGID_34_" points="191.1,25.8 191.3,37.4 195.1,35.4 194.9,23.7 			"/>
		</defs>
		<linearGradient id="SVGID_35_" gradientUnits="userSpaceOnUse" x1="191.1212" y1="30.5286" x2="195.1442" y2="30.5286">
			<stop  offset="0" style="stop-color:#1B2F61"/>
			<stop  offset="1" style="stop-color:#186AA6"/>
		</linearGradient>
		<use xlink:href="#SVGID_34_"  style="overflow:visible;fill:url(#SVGID_35_);"/>
		<clipPath id="SVGID_36_">
			<use xlink:href="#SVGID_34_"  style="overflow:visible;"/>
		</clipPath>
		<linearGradient id="SVGID_37_" gradientUnits="userSpaceOnUse" x1="184.9679" y1="30.5287" x2="201.2974" y2="30.5287">
			<stop  offset="0" style="stop-color:#1B2F61"/>
			<stop  offset="1" style="stop-color:#186AA6"/>
		</linearGradient>
		<polygon class="st9" points="201.3,27.5 194,39.2 185,33.6 192.2,21.9 		"/>
	</g>
	<linearGradient id="SVGID_38_" gradientUnits="userSpaceOnUse" x1="190.2" y1="56.0394" x2="198.274" y2="56.0394">
		<stop  offset="0" style="stop-color:#1B2F61"/>
		<stop  offset="1" style="stop-color:#186AA6"/>
	</linearGradient>
	<polygon class="st10" points="190.2,76 194,73.9 198.3,36.1 194.5,38.1 	"/>
	<g>
		<defs>
			<polygon id="SVGID_39_" points="190.2,76 202.8,77.8 206.6,75.7 194,73.9 			"/>
		</defs>
		<linearGradient id="SVGID_40_" gradientUnits="userSpaceOnUse" x1="190.2012" y1="75.8596" x2="206.6252" y2="75.8596">
			<stop  offset="0" style="stop-color:#1B2F61"/>
			<stop  offset="1" style="stop-color:#186AA6"/>
		</linearGradient>
		<use xlink:href="#SVGID_39_"  style="overflow:visible;fill:url(#SVGID_40_);"/>
		<clipPath id="SVGID_41_">
			<use xlink:href="#SVGID_39_"  style="overflow:visible;"/>
		</clipPath>
		<linearGradient id="SVGID_42_" gradientUnits="userSpaceOnUse" x1="190.126" y1="75.8597" x2="206.7003" y2="75.8597">
			<stop  offset="0" style="stop-color:#1B2F61"/>
			<stop  offset="1" style="stop-color:#186AA6"/>
		</linearGradient>
		<polygon class="st11" points="190.2,78.1 190.1,73.9 206.6,73.6 206.7,77.8 		"/>
	</g>
	<g>
		<defs>
			<polygon id="SVGID_43_" points="163.2,74.1 182.2,77.5 186,75.5 167,72.1 			"/>
		</defs>
		<linearGradient id="SVGID_44_" gradientUnits="userSpaceOnUse" x1="163.1962" y1="74.7796" x2="185.9842" y2="74.7796">
			<stop  offset="0" style="stop-color:#1B2F61"/>
			<stop  offset="1" style="stop-color:#186AA6"/>
		</linearGradient>
		<use xlink:href="#SVGID_43_"  style="overflow:visible;fill:url(#SVGID_44_);"/>
		<clipPath id="SVGID_45_">
			<use xlink:href="#SVGID_43_"  style="overflow:visible;"/>
		</clipPath>
		<linearGradient id="SVGID_46_" gradientUnits="userSpaceOnUse" x1="162.972" y1="74.7797" x2="186.2083" y2="74.7797">
			<stop  offset="0" style="stop-color:#1B2F61"/>
			<stop  offset="1" style="stop-color:#186AA6"/>
		</linearGradient>
		<polygon class="st12" points="163.2,78.4 163,72.1 185.9,71.1 186.2,77.5 		"/>
	</g>
	<g>
		<defs>
			<polygon id="SVGID_47_" points="162.2,65.7 163.2,74.1 167,72.1 166.1,63.6 			"/>
		</defs>
		<linearGradient id="SVGID_48_" gradientUnits="userSpaceOnUse" x1="162.1722" y1="68.8706" x2="167.0482" y2="68.8706">
			<stop  offset="0" style="stop-color:#1B2F61"/>
			<stop  offset="1" style="stop-color:#186AA6"/>
		</linearGradient>
		<use xlink:href="#SVGID_47_"  style="overflow:visible;fill:url(#SVGID_48_);"/>
		<clipPath id="SVGID_49_">
			<use xlink:href="#SVGID_47_"  style="overflow:visible;"/>
		</clipPath>
		<linearGradient id="SVGID_50_" gradientUnits="userSpaceOnUse" x1="161.966" y1="68.8707" x2="167.2544" y2="68.8707">
			<stop  offset="0" style="stop-color:#1B2F61"/>
			<stop  offset="1" style="stop-color:#186AA6"/>
		</linearGradient>
		<polygon class="st13" points="162.2,74.2 162,63.6 167,63.5 167.3,74.1 		"/>
	</g>
	<g>
		<defs>
			<polygon id="SVGID_51_" points="155.2,62.8 160.1,72.2 164.5,70.1 159.1,60.7 			"/>
		</defs>
		<linearGradient id="SVGID_52_" gradientUnits="userSpaceOnUse" x1="155.2462" y1="66.4621" x2="164.4752" y2="66.4621">
			<stop  offset="0" style="stop-color:#1B2F61"/>
			<stop  offset="1" style="stop-color:#186AA6"/>
		</linearGradient>
		<use xlink:href="#SVGID_51_"  style="overflow:visible;fill:url(#SVGID_52_);"/>
		<clipPath id="SVGID_53_">
			<use xlink:href="#SVGID_51_"  style="overflow:visible;"/>
		</clipPath>
		<linearGradient id="SVGID_54_" gradientUnits="userSpaceOnUse" x1="155.0201" y1="66.4621" x2="164.7013" y2="66.4621">
			<stop  offset="0" style="stop-color:#1B2F61"/>
			<stop  offset="1" style="stop-color:#186AA6"/>
		</linearGradient>
		<polygon class="st14" points="155.2,72.4 155,60.7 164.5,60.5 164.7,72.2 		"/>
	</g>
	<g>
		<defs>
			<polygon id="SVGID_55_" points="137.6,66.1 154.3,68.8 158.1,66.7 141.4,64.1 			"/>
		</defs>
		<linearGradient id="SVGID_56_" gradientUnits="userSpaceOnUse" x1="137.5752" y1="66.4131" x2="158.1062" y2="66.4131">
			<stop  offset="0" style="stop-color:#1B2F61"/>
			<stop  offset="1" style="stop-color:#186AA6"/>
		</linearGradient>
		<use xlink:href="#SVGID_55_"  style="overflow:visible;fill:url(#SVGID_56_);"/>
		<clipPath id="SVGID_57_">
			<use xlink:href="#SVGID_55_"  style="overflow:visible;"/>
		</clipPath>
		<linearGradient id="SVGID_58_" gradientUnits="userSpaceOnUse" x1="137.382" y1="66.4132" x2="158.2994" y2="66.4132">
			<stop  offset="0" style="stop-color:#1B2F61"/>
			<stop  offset="1" style="stop-color:#186AA6"/>
		</linearGradient>
		<polygon class="st15" points="137.6,69.6 137.4,64.1 158.1,63.2 158.3,68.7 		"/>
	</g>
	<g>
		<defs>
			<polygon id="SVGID_59_" points="144.4,24.3 137.6,66.1 141.4,64.1 148.3,22.1 			"/>
		</defs>
		<linearGradient id="SVGID_60_" gradientUnits="userSpaceOnUse" x1="137.5752" y1="44.0936" x2="148.2722" y2="44.0936">
			<stop  offset="0" style="stop-color:#1B2F61"/>
			<stop  offset="1" style="stop-color:#186AA6"/>
		</linearGradient>
		<use xlink:href="#SVGID_59_"  style="overflow:visible;fill:url(#SVGID_60_);"/>
		<clipPath id="SVGID_61_">
			<use xlink:href="#SVGID_59_"  style="overflow:visible;"/>
		</clipPath>
		<linearGradient id="SVGID_62_" gradientUnits="userSpaceOnUse" x1="115.9286" y1="44.0937" x2="169.9187" y2="44.0937">
			<stop  offset="0" style="stop-color:#1B2F61"/>
			<stop  offset="1" style="stop-color:#186AA6"/>
		</linearGradient>
		<polygon class="st16" points="143.9,71.3 115.9,47.9 142,16.8 169.9,40.3 		"/>
	</g>
	<g>
		<defs>
			<polygon id="SVGID_63_" points="115.1,24.5 117.9,27.8 121.8,25.8 119.1,22.4 			"/>
		</defs>
		<linearGradient id="SVGID_64_" gradientUnits="userSpaceOnUse" x1="115.1242" y1="25.1061" x2="121.7632" y2="25.1061">
			<stop  offset="0" style="stop-color:#1B2F61"/>
			<stop  offset="1" style="stop-color:#186AA6"/>
		</linearGradient>
		<use xlink:href="#SVGID_63_"  style="overflow:visible;fill:url(#SVGID_64_);"/>
		<clipPath id="SVGID_65_">
			<use xlink:href="#SVGID_63_"  style="overflow:visible;"/>
		</clipPath>
		<linearGradient id="SVGID_66_" gradientUnits="userSpaceOnUse" x1="112.6282" y1="25.1062" x2="124.2591" y2="25.1062">
			<stop  offset="0" style="stop-color:#1B2F61"/>
			<stop  offset="1" style="stop-color:#186AA6"/>
		</linearGradient>
		<polygon class="st17" points="112.6,24.1 119.6,19.3 124.3,26.1 117.2,30.9 		"/>
	</g>
	<g>
		<defs>
			<polygon id="SVGID_67_" points="95.2,61.8 126.2,77.1 130,75.2 99,59.7 			"/>
		</defs>
		<linearGradient id="SVGID_68_" gradientUnits="userSpaceOnUse" x1="95.2012" y1="68.4351" x2="129.9772" y2="68.4351">
			<stop  offset="0" style="stop-color:#1B2F61"/>
			<stop  offset="1" style="stop-color:#186AA6"/>
		</linearGradient>
		<use xlink:href="#SVGID_67_"  style="overflow:visible;fill:url(#SVGID_68_);"/>
		<clipPath id="SVGID_69_">
			<use xlink:href="#SVGID_67_"  style="overflow:visible;"/>
		</clipPath>
		<linearGradient id="SVGID_70_" gradientUnits="userSpaceOnUse" x1="94.7071" y1="68.4351" x2="130.4712" y2="68.4351">
			<stop  offset="0" style="stop-color:#1B2F61"/>
			<stop  offset="1" style="stop-color:#186AA6"/>
		</linearGradient>
		<polygon class="st18" points="94.7,77.1 95.2,58.7 130.5,59.7 129.9,78.1 		"/>
	</g>
	<g>
		<defs>
			<polygon id="SVGID_71_" points="98.1,20 93.4,28.9 97.3,26.8 101.9,17.8 			"/>
		</defs>
		<linearGradient id="SVGID_72_" gradientUnits="userSpaceOnUse" x1="93.4082" y1="23.3851" x2="101.9442" y2="23.3851">
			<stop  offset="0" style="stop-color:#1B2F61"/>
			<stop  offset="1" style="stop-color:#186AA6"/>
		</linearGradient>
		<use xlink:href="#SVGID_71_"  style="overflow:visible;fill:url(#SVGID_72_);"/>
		<clipPath id="SVGID_73_">
			<use xlink:href="#SVGID_71_"  style="overflow:visible;"/>
		</clipPath>
		<linearGradient id="SVGID_74_" gradientUnits="userSpaceOnUse" x1="89.3239" y1="23.3852" x2="106.0285" y2="23.3852">
			<stop  offset="0" style="stop-color:#1B2F61"/>
			<stop  offset="1" style="stop-color:#186AA6"/>
		</linearGradient>
		<polygon class="st19" points="106,19.6 100.6,32.1 89.3,27.1 94.8,14.7 		"/>
	</g>
	<g>
		<defs>
			<polygon id="SVGID_75_" points="84.2,75.2 80.3,77.3 95.1,75.1 99.1,73.1 			"/>
		</defs>
		<linearGradient id="SVGID_76_" gradientUnits="userSpaceOnUse" x1="80.3252" y1="75.2221" x2="99.0652" y2="75.2221">
			<stop  offset="0" style="stop-color:#1B2F61"/>
			<stop  offset="1" style="stop-color:#186AA6"/>
		</linearGradient>
		<use xlink:href="#SVGID_75_"  style="overflow:visible;fill:url(#SVGID_76_);"/>
		<clipPath id="SVGID_77_">
			<use xlink:href="#SVGID_75_"  style="overflow:visible;"/>
		</clipPath>
		<linearGradient id="SVGID_78_" gradientUnits="userSpaceOnUse" x1="80.3084" y1="75.2221" x2="99.0819" y2="75.2221">
			<stop  offset="0" style="stop-color:#1B2F61"/>
			<stop  offset="1" style="stop-color:#186AA6"/>
		</linearGradient>
		<polygon class="st20" points="80.3,77.4 80.3,73.1 99.1,73.1 99.1,77.3 		"/>
	</g>
	<g>
		<defs>
			<polygon id="SVGID_79_" points="76.7,37.4 80.3,77.3 84.2,75.2 80.5,35.4 			"/>
		</defs>
		<linearGradient id="SVGID_80_" gradientUnits="userSpaceOnUse" x1="76.7112" y1="56.3271" x2="84.2342" y2="56.3271">
			<stop  offset="0" style="stop-color:#1B2F61"/>
			<stop  offset="1" style="stop-color:#186AA6"/>
		</linearGradient>
		<use xlink:href="#SVGID_79_"  style="overflow:visible;fill:url(#SVGID_80_);"/>
		<clipPath id="SVGID_81_">
			<use xlink:href="#SVGID_79_"  style="overflow:visible;"/>
		</clipPath>
		<linearGradient id="SVGID_82_" gradientUnits="userSpaceOnUse" x1="68.6017" y1="56.3272" x2="92.3436" y2="56.3272">
			<stop  offset="0" style="stop-color:#1B2F61"/>
			<stop  offset="1" style="stop-color:#186AA6"/>
		</linearGradient>
		<polygon class="st21" points="92.3,75.7 77,78.8 68.6,37 83.9,33.9 		"/>
	</g>
	<g>
		<defs>
			<polygon id="SVGID_83_" points="72.5,27.1 73.1,38.3 77,36.3 76.4,24.9 			"/>
		</defs>
		<linearGradient id="SVGID_84_" gradientUnits="userSpaceOnUse" x1="72.5412" y1="31.6176" x2="76.9642" y2="31.6176">
			<stop  offset="0" style="stop-color:#1B2F61"/>
			<stop  offset="1" style="stop-color:#186AA6"/>
		</linearGradient>
		<use xlink:href="#SVGID_83_"  style="overflow:visible;fill:url(#SVGID_84_);"/>
		<clipPath id="SVGID_85_">
			<use xlink:href="#SVGID_83_"  style="overflow:visible;"/>
		</clipPath>
		<linearGradient id="SVGID_86_" gradientUnits="userSpaceOnUse" x1="72.1526" y1="31.6177" x2="77.3528" y2="31.6177">
			<stop  offset="0" style="stop-color:#1B2F61"/>
			<stop  offset="1" style="stop-color:#186AA6"/>
		</linearGradient>
		<polygon class="st22" points="77,24.8 77.4,38.3 72.5,38.5 72.2,24.9 		"/>
	</g>
	<g>
		<defs>
			<polygon id="SVGID_87_" points="41.7,86.1 37.8,88.7 53.5,83.6 57.4,81.2 57.4,81.2 			"/>
		</defs>
		<linearGradient id="SVGID_88_" gradientUnits="userSpaceOnUse" x1="37.8372" y1="84.9376" x2="57.4112" y2="84.9376">
			<stop  offset="0" style="stop-color:#1B2F61"/>
			<stop  offset="1" style="stop-color:#186AA6"/>
		</linearGradient>
		<use xlink:href="#SVGID_87_"  style="overflow:visible;fill:url(#SVGID_88_);"/>
		<clipPath id="SVGID_89_">
			<use xlink:href="#SVGID_87_"  style="overflow:visible;"/>
		</clipPath>
		<linearGradient id="SVGID_90_" gradientUnits="userSpaceOnUse" x1="37.4036" y1="84.9377" x2="57.8447" y2="84.9377">
			<stop  offset="0" style="stop-color:#1B2F61"/>
			<stop  offset="1" style="stop-color:#186AA6"/>
		</linearGradient>
		<polygon class="st23" points="37.9,89.8 37.4,81.2 57.3,80.1 57.8,88.7 		"/>
	</g>
	<g>
		<defs>
			<polygon id="SVGID_91_" points="21.3,51.3 37.8,88.7 41.7,86.1 24.5,47.9 			"/>
		</defs>
		<linearGradient id="SVGID_92_" gradientUnits="userSpaceOnUse" x1="21.3342" y1="68.2776" x2="41.7022" y2="68.2776">
			<stop  offset="0" style="stop-color:#1B2F61"/>
			<stop  offset="1" style="stop-color:#186AA6"/>
		</linearGradient>
		<use xlink:href="#SVGID_91_"  style="overflow:visible;fill:url(#SVGID_92_);"/>
		<clipPath id="SVGID_93_">
			<use xlink:href="#SVGID_91_"  style="overflow:visible;"/>
		</clipPath>
		<linearGradient id="SVGID_94_" gradientUnits="userSpaceOnUse" x1="7.1995" y1="68.2777" x2="55.8368" y2="68.2777">
			<stop  offset="0" style="stop-color:#1B2F61"/>
			<stop  offset="1" style="stop-color:#186AA6"/>
		</linearGradient>
		<polygon class="st24" points="24.2,95.7 7.2,53.5 38.9,40.8 55.8,83 		"/>
	</g>
	<g>
		<defs>
			<path id="SVGID_95_" d="M51.5,59.6c0,0,0.8,4.4,1.9,7.5c1.1,3.1,3.7,5.6,3.7,5.6c1.7,1.6,3.7,2.8,6,3.5c4.4,1.3,9.3,0.4,13.6-2.3
				c1.1-0.7,2.6-1.8,3.5-2.7c-4.2,2.5-9.5,3.6-13.8,2.4c-4.1-1.2-7.3-4-9.2-7.9c-0.9-2-1.8-6.5-1.9-8.7
				C54.6,57.8,52.8,58.9,51.5,59.6"/>
		</defs>
		<linearGradient id="SVGID_96_" gradientUnits="userSpaceOnUse" x1="51.5452" y1="66.7309" x2="80.2692" y2="66.7309">
			<stop  offset="0" style="stop-color:#1B2F61"/>
			<stop  offset="1" style="stop-color:#186AA6"/>
		</linearGradient>
		<use xlink:href="#SVGID_95_"  style="overflow:visible;fill:url(#SVGID_96_);"/>
		<clipPath id="SVGID_97_">
			<use xlink:href="#SVGID_95_"  style="overflow:visible;"/>
		</clipPath>
		<linearGradient id="SVGID_98_" gradientUnits="userSpaceOnUse" x1="44.0576" y1="67.0736" x2="87.7567" y2="67.0736">
			<stop  offset="0" style="stop-color:#1B2F61"/>
			<stop  offset="1" style="stop-color:#186AA6"/>
		</linearGradient>
		<polygon class="st25" points="56.1,87.8 44.1,60.1 75.7,46.3 87.8,74.1 		"/>
	</g>
	<g>
		<defs>
			<polygon id="SVGID_99_" points="77,36.3 73.1,38.3 76.7,37.4 80.5,35.4 			"/>
		</defs>
		<clipPath id="SVGID_100_">
			<use xlink:href="#SVGID_99_"  style="overflow:visible;"/>
		</clipPath>
		
			<linearGradient id="SVGID_101_" gradientUnits="userSpaceOnUse" x1="0.5173" y1="722.5204" x2="1.5173" y2="722.5204" gradientTransform="matrix(-1.2851 -65.5327 -65.5327 1.2851 47427.1055 -810.7116)">
			<stop  offset="0" style="stop-color:#161644"/>
			<stop  offset="1" style="stop-color:#2250A2"/>
		</linearGradient>
		<polygon class="st26" points="73.1,38.5 73,35.4 80.5,35.2 80.6,38.3 		"/>
	</g>
	<g>
		<defs>
			<path id="SVGID_102_" d="M191.8,68.4c-2.3,0.7-4.7,0.8-6.9,0.5l0.2,1.8c1.3-0.2,2.8-0.3,4-0.8c1.4-0.5,4.5-1.8,5.7-2.9
				C194.3,67.3,192.3,68.3,191.8,68.4"/>
		</defs>
		<linearGradient id="SVGID_103_" gradientUnits="userSpaceOnUse" x1="184.9152" y1="68.9541" x2="194.7772" y2="68.9541">
			<stop  offset="0" style="stop-color:#1B2F61"/>
			<stop  offset="1" style="stop-color:#186AA6"/>
		</linearGradient>
		<use xlink:href="#SVGID_102_"  style="overflow:visible;fill:url(#SVGID_103_);"/>
		<clipPath id="SVGID_104_">
			<use xlink:href="#SVGID_102_"  style="overflow:visible;"/>
		</clipPath>
		<linearGradient id="SVGID_105_" gradientUnits="userSpaceOnUse" x1="184.7147" y1="68.9542" x2="194.9776" y2="68.9542">
			<stop  offset="0" style="stop-color:#1B2F61"/>
			<stop  offset="1" style="stop-color:#186AA6"/>
		</linearGradient>
		<polygon class="st27" points="184.7,70.8 184.9,66.6 195,67.1 194.7,71.3 		"/>
	</g>
	<g>
		<defs>
			<path id="SVGID_106_" d="M141.5,56.8c-2.5,1.4-9.1,3.4-11.5,3.4l0.1,2.1c3.2-0.5,5.9-1.6,8.6-3.2c1.7-1,3.5-2.5,4.1-2.9
				C142.3,56.4,141.9,56.6,141.5,56.8"/>
		</defs>
		<linearGradient id="SVGID_107_" gradientUnits="userSpaceOnUse" x1="129.9712" y1="59.2421" x2="142.7112" y2="59.2421">
			<stop  offset="0" style="stop-color:#1B2F61"/>
			<stop  offset="1" style="stop-color:#186AA6"/>
		</linearGradient>
		<use xlink:href="#SVGID_106_"  style="overflow:visible;fill:url(#SVGID_107_);"/>
		<clipPath id="SVGID_108_">
			<use xlink:href="#SVGID_106_"  style="overflow:visible;"/>
		</clipPath>
		<linearGradient id="SVGID_109_" gradientUnits="userSpaceOnUse" x1="129.7658" y1="59.2422" x2="142.9165" y2="59.2422">
			<stop  offset="0" style="stop-color:#1B2F61"/>
			<stop  offset="1" style="stop-color:#186AA6"/>
		</linearGradient>
		<polygon class="st28" points="130,62.8 129.8,56.2 142.7,55.7 142.9,62.3 		"/>
	</g>
	<g>
		<defs>
			<rect id="SVGID_110_" x="7.2" y="4.3" width="229.9" height="117.5"/>
		</defs>
		<clipPath id="SVGID_111_">
			<use xlink:href="#SVGID_110_"  style="overflow:visible;"/>
		</clipPath>
		<path class="st29" d="M219.2,29.1l-1.7,7l-1.6-7.7L195,23.7l0.2,11.6l3.2,0.7l-0.2,2.1c0,0-0.1,0-0.1-0.1
			c-3.9-2.1-8.8-2.3-13.3-0.6c-1.5,0.6-2.9,1.4-4.2,2.3l-3.1-19.9h-13.9l-0.4,2.3h-14.7l-1.7,10.3l-1.2-1.5
			c-3.5-4.4-8.7-6.8-14.4-6.9l12.4-6.7l-8.7-13l-15.7,18.1l2.7,3.3c-2.5,1-4.6,2.4-6.4,4L102,17.9l-4.7,9l0.2-8.7l-21,6.7l0.5,11.3
			l3.6-0.9l0.5,5.7c-4.1-1.8-9-1.8-13.5,0.1c-1.3,0.6-2.6,1.3-3.8,2.1c0.8-3.5,0.6-6.9-0.7-10c-1.6-3.6-4.3-6.6-7.7-8.5
			c-2.4-1.6-5.2-2.6-8.2-2.9c-7.3-1.3-16,0-24.6,3.7c-3.2,1.3-6.1,2.9-8.8,4.6l-3.4,2.1l2,3.4l6.3,10.6c0,0,1.9,3.3,1.9,3.3l3.4-1.7
			l0.5-0.2l15.6,34.9l1.5,3.4l3.5-1.1l8.5-2.7l3.7-1.2l-1-3.8L51.9,60c1.3-1,2.5-2,3.6-3c-0.2,2.1-0.1,4.2,0.4,6.2
			c1.2,4.2,3.9,7.5,7.7,9.3c4.1,2,9.1,2,13.8,0c2.3-1,4.4-2.4,6.1-4.1l0.6,6.9L99.1,73l0-13.3l31,15.3V60.2c1.3-0.1,2.5-0.3,3.8-0.6
			c3.4-0.8,6.3-2,8.9-3.5l-1.3,8l16.7,2.6l0.9-6l4.4,8.1l2.7-5.1l1,8.4l18.9,3.3l-1-6.4c2.6,0.3,5.3,0,8-1c0.6-0.2,1.2-0.5,1.8-0.8
			l-0.8,6.8l12.6,1.8l0.1,5.2l13.1,4.1L237,33.4L219.2,29.1z M105.9,45l4-3.9c-0.2,1.8-0.1,3.6,0.3,5.5L105.9,45z M145,42.3
			l-2.7-2.5l2.9-3.1l0.9-0.9L145,42.3z M47.6,48.5L47,49l-0.2-0.8l-2.4-7.9l-0.2-0.5l0.6-0.1c1.3-0.2,2.5-0.1,3.4,0.4
			c0.6,0.3,1.6,0.9,1.8,2.2C50.5,44.7,49.7,46.6,47.6,48.5 M124.5,43.2l-0.5,0.5l-0.3-0.6c-1.1-2-0.8-4.4,0.7-6
			c1.5-1.6,3.7-2.1,5.7-1.3l0.7,0.3l-0.5,0.5L124.5,43.2z"/>
		<path class="st30" d="M122.1,48.2c0.2,0.2,0,0.1,0.3,0.2l1.9-1.2c-0.3-0.2-0.6-0.5-0.9-0.7c-2.6-2.4-1.9-7.7-0.2-10.6
			C118.7,39.6,118.9,45.1,122.1,48.2"/>
		<path class="st30" d="M143.6,50.6c-2.9,2.4-6.3,4-10.8,5.1c-1,0.2-1.9,0.4-2.9,0.5c-7.1,0.7-13-2.6-15.2-7.8
			c-0.3-0.6-0.5-1.3-0.6-2c-1-4.4-0.2-8.4,2-11.5c0.2-0.3,0.4-0.6,0.7-0.9c-0.1,0.1-0.2,0.2-0.3,0.3c-0.8,0.7-1.6,1.6-2.2,2.5
			c-2.2,3.1-3.1,7-2,11.5c0.2,0.7,0.4,1.3,0.6,2c2.3,5.3,8.2,8.5,15.2,7.8c0.9-0.1,1.9-0.2,2.9-0.5c4.4-1.1,7.8-2.7,10.8-5.1
			c0.7-0.6,1.4-1.2,2.1-1.9l-0.1-0.1C143.7,50.5,143.7,50.6,143.6,50.6"/>
		<polygon class="st30" points="101.8,26.2 101.5,25.9 93.9,36.6 93.9,37.3 		"/>
		<polygon class="st30" points="138.7,16.4 134.1,10.2 132.4,12.2 136.3,17.6 		"/>
		<path class="st31" d="M59.2,35c-1.2-2.9-3.4-5.1-6.2-6.7c-2-1.4-4.4-2-6.6-2.3c-6.3-1.1-14.1-0.1-22.3,3.4
			c-2.9,1.2-5.7,2.7-8.2,4.3l0.3,0.6c1.9-1.1,3.9-2.1,6-3c8.2-3.5,16-4.5,22.3-3.4c2.2,0.2,4.6,0.9,6.6,2.3c2.8,1.6,5,3.8,6.2,6.7
			c2.2,5.1,0.3,11.9-5,17.6C59,48.5,61.7,40.7,59.2,35"/>
		<path class="st30" d="M85.9,51.7c-0.1-0.3-0.1-0.6-0.2-0.8c-0.7-2.6-2.3-4.6-4.3-6c-3.3-2.2-7.8-2.7-12.4-0.8
			c-2.4,1-4.5,2.6-6.1,4.5c1.3-1.1,2.7-2,4.3-2.7c4.5-1.9,9.1-1.5,12.4,0.8c2,1.4,3.6,3.4,4.3,6c0.1,0.3,0.1,0.6,0.2,0.9
			c0.2,1,0.3,2,0.3,3c-0.1,3-1.2,6-3,8.5c-0.3,0.4-0.6,0.8-0.9,1.1c1-0.9,2-1.9,2.8-3c1.8-2.6,2.9-5.5,3-8.5
			C86.2,53.7,86.1,52.7,85.9,51.7"/>
		<path class="st30" d="M73.4,47.9c0,0,1.8-1.9,1.8-1.9c-2.3-0.1-3.3,2.1-3.4,2.3C72.3,48.1,72.8,48,73.4,47.9"/>
		<path class="st30" d="M77.7,50.6c0.1,0.3,0.2,0.6,0.2,1c0,0.5-0.1,1-0.3,1.4c0.4-0.2,3.1-1.5,2-4.3C79.7,48.8,77.7,50.6,77.7,50.6
			"/>
		<path class="st30" d="M67.1,52.2c0-1.1,1.9-3.9,2.6-4.8c-3.1,2-4.4,4.6-4.4,6.7c0,3.6,3.1,6.5,6.9,6.5c1.8,0,5-0.9,7.1-4.4
			c-1.1,0.7-3.9,2.5-5.4,2.5C70.1,58.6,67.1,55.7,67.1,52.2"/>
		<polygon class="st30" points="93.6,69.9 95.4,69.6 95.4,53.5 93.5,55.4 		"/>
		<polygon class="st30" points="92.1,39.8 93.9,37.3 93.1,24.1 80.4,27.9 80.4,29.2 91.3,26 		"/>
		<polygon class="st30" points="103.3,24 101.8,26.2 110.8,34.6 112.5,32.8 		"/>
		<path class="st30" d="M117.7,57.5c-2.6-1.6-4.6-3.8-6-6.3l-12.1-4.8L98,48.2l12,4.8c1.4,2.6,3.4,4.7,6,6.3
			c2.5,1.5,5.4,2.5,8.4,2.7V68l1.9,0.9v-8.7C123.1,59.9,120.3,59,117.7,57.5"/>
		<path class="st30" d="M130.9,48.7c2.9-0.7,4.6-2.2,6.1-3.9c-1.1,0.9-2.4,1.7-4.3,2.1c-1,0.2-2.4,0.5-3.3,0.3l-1.8,1.9
			C128.6,49.1,129.9,48.9,130.9,48.7"/>
		<path class="st30" d="M126.1,28.6c-3,0.7-5.6,2.1-7.7,3.9c-0.6,0.5-1.1,1-1.5,1.6c2-1.7,4.5-3,7.4-3.6c6.7-1.6,12.6,0.4,16.3,5
			l1.8-1.9C138.7,29,132.8,27,126.1,28.6"/>
		<path class="st30" d="M143.8,50.5c0.7-0.6,1.3-1.1,1.9-1.8l-1.6-1.4l-5.1-4.6c-0.6,0.7-1.1,1.3-1.8,1.9l5.1,4.6L143.8,50.5z"/>
		<path class="st30" d="M180.9,67.9c-0.4-0.2-0.7-0.3-1.1-0.5c-3.6-1.9-6.1-5.2-7-9.3c-1.3-5.3,0.6-11,4.3-15.3l-2.9-19.1H167
			l-0.3,1.9h5.6l2.9,19.1c-3.8,4.3-5.6,10-4.3,15.3c1,4.1,3.5,7.3,7.1,9.2c0.4,0.2,0.7,0.4,1.1,0.5l0,0.3l2.2,0.3L180.9,67.9z"/>
		<polygon class="st30" points="162.3,41.3 164.2,39.5 161.7,25.9 151.8,25.9 151.5,27.8 159.9,27.8 		"/>
		<polygon class="st30" points="163.4,59.2 164.1,60.6 168,50.4 166.2,52.2 		"/>
		<polygon class="st30" points="156.3,49.7 154.3,62.3 155.8,62.6 158.1,47.8 		"/>
		<path class="st30" d="M195.8,43.8c1.1,0.8,2,1.8,2.7,3c0.5,0.9,1,1.9,1.2,3c0.9,3.8-0.2,7.9-2.6,11.2c-0.2,0.3-0.5,0.7-0.8,1
			c1-0.8,1.9-1.8,2.6-2.8c2.4-3.3,3.5-7.4,2.6-11.2c-0.3-1.1-0.7-2.1-1.2-3c-0.7-1.2-1.6-2.2-2.7-3c-3-2.2-7.3-2.7-11.6-1.1
			c-1.9,0.7-3.5,1.8-5,3.1c-0.5,0.5-1,1-1.5,1.5c1.4-1.2,2.9-2.1,4.6-2.7C188.5,41.1,192.8,41.6,195.8,43.8"/>
		<path class="st30" d="M189.3,44.6c0,0.1,1.8-1.9,1.9-1.9c-2.3,0.1-3.4,1.2-3.3,1.7c-0.1,0.2-0.2,0.4-0.3,0.6
			C188.1,44.8,189,44.6,189.3,44.6"/>
		<path class="st30" d="M193.6,47.5c0.1,0.3,0.1,0.6,0.1,1c0,0.4-0.1,0.8-0.3,1.2c0.3-0.2,3.1-1,2-4
			C195.5,45.7,193.6,47.5,193.6,47.5"/>
		<path class="st30" d="M187.6,57.1c2.6,0.1,5.4-1.5,7.5-4.3c-1.2,0.8-4.1,2.4-5.7,2.3c-3.8-0.2-6.6-3.1-6.5-6.7c0-1,1.4-3.3,2-4.2
			c-2,1.4-3.7,4.2-3.8,6.1C180.9,54.1,183.8,57,187.6,57.1"/>
		<polygon class="st30" points="221.7,33.6 221.1,35.7 230.2,37.7 216.3,79.9 217.4,80.2 232.1,35.9 		"/>
		<polygon class="st30" points="215.1,55 217,53.1 212.4,31.3 198.7,28.6 198.6,30.8 210.5,33.2 		"/>
		<polygon class="st30" points="204.4,71.7 205.9,71.9 209.5,51.3 207.7,53.1 		"/>
		<polygon class="st30" points="47.2,58.3 45.2,59.7 50.3,79.1 52.6,78.7 		"/>
		<path class="st30" d="M51.3,48.6c-1.3,1.4-4.1,4-5.8,5.1l-1-3.2l-2.2-7L41,38.9l-1.3,1.7l1.4,4.7l2.2,7l1,3.2
			C46.5,54,49.7,51.3,51.3,48.6"/>
		<path class="st32" d="M130.4,36.1c-1.8-0.7-4.3-0.5-5.6,1c-0.3,0.3-0.9,1.2-1.1,1.6c1.3-1,3.6-1.3,5.1-0.7L130.4,36.1z"/>
		<path class="st32" d="M49.7,42.4c-0.2-1.1-1.2-1.9-1.7-2.1c-0.9-0.4-2.4-0.5-3.6-0.3c0.2,0.7,0.4,1.5,0.5,1.9
			c0.5,0.1,1.2,0.2,1.6,0.4c0.5,0.2,1.4,0.8,1.6,1.8c0.3,1.4,0.2,2.7-0.4,3.8C49.4,46.3,50.1,44.6,49.7,42.4"/>
		<linearGradient id="SVGID_112_" gradientUnits="userSpaceOnUse" x1="10.2984" y1="45.2699" x2="237.1055" y2="45.2699">
			<stop  offset="0" style="stop-color:#375B9F"/>
			<stop  offset="1" style="stop-color:#2A73AE"/>
		</linearGradient>
		<path class="st33" d="M237.1,33.4C237.1,33.4,237.1,33.3,237.1,33.4L219.2,29c0,0-0.1,0-0.1,0c0,0,0,0,0,0.1c0,0-1.4,5.8-1.6,6.5
			c-0.2-0.8-1.5-7.3-1.5-7.3c0,0,0-0.1-0.1-0.1L195,23.6c0,0-0.1,0-0.1,0c0,0,0,0,0,0.1l0.2,11.6c0,0,0,0.1,0.1,0.1
			c0,0,2.9,0.6,3.1,0.7c0,0.1-0.2,1.6-0.2,1.9c-3.9-2.1-8.8-2.3-13.4-0.5c-1.4,0.6-2.8,1.3-4.1,2.2c0-0.3-3.1-19.8-3.1-19.8
			c0,0,0-0.1-0.1-0.1h-13.9c0,0-0.1,0-0.1,0.1c0,0-0.4,2.1-0.4,2.2h-14.6c0,0-0.1,0-0.1,0.1c0,0-1.6,9.6-1.6,10
			c-0.2-0.3-1.1-1.3-1.1-1.3c-3.5-4.3-8.5-6.7-14.1-6.9c0.6-0.3,12.1-6.5,12.1-6.5c0,0,0,0,0.1-0.1v0c0,0,0,0,0-0.1l-8.7-13
			c0,0,0,0-0.1,0c0,0-0.1,0-0.1,0L119,22.4c0,0,0,0,0,0.1c0,0,0,0,0,0.1c0,0,2.5,3,2.6,3.2c-2.4,1-4.4,2.3-6.2,4
			c-0.1-0.1-13.4-11.9-13.4-11.9c0,0-0.1,0-0.1,0c0,0-0.1,0-0.1,0c0,0-4.2,8-4.5,8.6c0-0.8,0.2-8.2,0.2-8.2c0,0,0-0.1,0-0.1
			c0,0-0.1,0-0.1,0l-21,6.7c0,0-0.1,0.1-0.1,0.1l0.5,11.3c0,0,0,0.1,0,0.1c0,0,0.1,0,0.1,0c0,0,3.3-0.8,3.5-0.9
			c0,0.2,0.5,5.2,0.5,5.5c-4.1-1.8-9-1.7-13.5,0.2c-1.3,0.5-2.5,1.2-3.6,2c0.3-1.3,0.4-2.6,0.4-3.8c0-2.1-0.4-4.2-1.2-6
			c-1.6-3.6-4.3-6.6-7.8-8.6c-2.4-1.6-5.2-2.6-8.2-2.9c-7.3-1.3-16,0-24.6,3.7c-3.2,1.3-6.1,2.9-8.8,4.6l-3.4,2.1c0,0-0.1,0.1,0,0.1
			l8.3,14.1c2,3.3,2,3.3,2.1,3.3c0,0,3.7-1.8,3.8-1.9c0.1,0.2,17.1,38.2,17.1,38.2c0,0,0.1,0.1,0.1,0.1l15.7-5c0,0,0.1-0.1,0.1-0.1
			c0,0,0,0,0,0c0,0-5.4-20.9-5.5-21c1.2-0.9,2.3-1.8,3.4-2.9c-0.1,0.6-0.1,1.2-0.1,1.8c0,1.4,0.2,2.8,0.6,4.2
			c1.2,4.2,3.9,7.5,7.8,9.4c4.1,2,9.2,2,13.8,0c2.2-0.9,4.2-2.3,6-4c0,0.4,0.6,6.7,0.6,6.7c0,0,0,0.1,0,0.1c0,0,0,0,0.1,0l14.8-2.2
			c0.1,0,0.1,0,0.1-0.1c0,0,0-12.8,0-13.1C99.4,60,130,75.2,130,75.2c0,0,0.1,0,0.1,0c0,0,0.1-0.1,0.1-0.1V60.3
			c1.3-0.1,2.5-0.3,3.7-0.6c3.4-0.8,6.2-1.9,8.8-3.4c-0.1,0.4-1.3,7.8-1.3,7.8v0c0,0,0,0,0,0.1c0,0,0,0,0.1,0l16.7,2.6
			c0,0,0.1,0,0.1,0c0,0,0,0,0-0.1c0,0,0.8-5.2,0.9-5.7c0.3,0.5,4.2,7.8,4.2,7.8c0,0,0,0,0.1,0c0,0,0.1,0,0.1-0.1
			c0,0,2.2-4.3,2.5-4.9c0.1,0.6,0.9,8.1,0.9,8.1c0,0,0,0.1,0.1,0.1l18.9,3.3c0,0,0.1,0,0.1,0c0,0,0,0,0-0.1c0,0,0,0,0,0
			c0,0-0.9-6-1-6.3c2.6,0.3,5.3-0.1,7.9-1.1c0,0,1.2-0.6,1.7-0.8c0,0.3-0.7,6.6-0.7,6.6c0,0,0,0.1,0.1,0.1c0,0,12.4,1.7,12.5,1.8
			c0,0.2,0.1,5.1,0.1,5.1c0,0,0,0.1,0.1,0.1l13.1,4.1c0.1,0,0.1,0,0.1-0.1L237.1,33.4C237.1,33.4,237.1,33.4,237.1,33.4 M134.1,10.4
			c0.1,0.2,4.3,5.9,4.4,6c-0.2,0.1-12.8,6.3-12.9,6.4c-0.1-0.1-0.8-1.1-0.8-1.2C124.8,21.5,133.9,10.5,134.1,10.4 M47.1,58.2
			C47.1,58.2,47.1,58.2,47.1,58.2c0,0.1,0,0.1,0,0.1c0,0,5.2,19.8,5.2,20c-0.2,0.1-8.1,2.6-8.3,2.7c-0.1-0.2-17.4-38.7-17.4-38.7
			c0,0,0,0-0.1-0.1c0,0-0.1,0-0.1,0l-2.8,1.4c0,0-1.3,0.6-1.4,0.7c-0.1-0.2-6.1-10.3-6.2-10.5c2.5-1.5,5.2-3,8.1-4.2
			c7.9-3.3,15.7-4.5,22.2-3.4c2.5,0.3,4.8,1.1,6.6,2.3c2.9,1.6,5,3.9,6.2,6.7c0.6,1.4,0.9,2.9,0.9,4.4C60,45.8,55.1,53.3,47.1,58.2
			 M83,63.2c-1.8,2.5-4.2,4.5-7,5.7c-3.7,1.6-7.6,1.6-10.8,0.1c-2.8-1.4-4.9-3.8-5.8-7c-1.9-6.7,2.4-14.6,9.6-17.7
			c4.3-1.8,8.9-1.5,12.3,0.7c2.1,1.4,3.5,3.5,4.2,5.9l0.2,0.8c0.2,1,0.3,2,0.3,3C86,57.6,84.9,60.6,83,63.2 M126,68.7
			c-0.3-0.1-30.6-15.3-30.6-15.3c0,0-0.1,0-0.1,0c0,0,0,0,0,0.1c0,0,0.1,15.9,0.1,16c-0.2,0-7.6,1-7.8,1.1c0-0.2-0.6-6.5-0.6-6.5
			c1.7-3,2.7-6.2,2.7-9.4c0-1.5-0.2-2.9-0.6-4.3c-0.7-2.5-2-4.7-3.8-6.5c0,0,0,0,0,0c0-0.3-1.1-13.5-1.1-13.5c0,0,0-0.1,0-0.1
			c0,0-0.1,0-0.1,0c0,0-3.2,0.8-3.5,0.9c0-0.2-0.1-3.1-0.1-3.2c0.1,0,12.4-3.7,12.6-3.7c0,0.2,0.8,13,0.8,13c0,0,0,0.1,0.1,0.1
			c0,0,0.1,0,0.1,0c0,0,9.2-12.9,9.3-13.1c0.2,0.2,8.9,8.5,9,8.6c-0.1,0.1-12.8,13.5-12.8,13.5c0,0,0,0,0,0.1c0,0,0,0,0,0
			c0,0,0,0.1,0.1,0.1l12.1,4.8c1.3,2.5,3.4,4.7,6,6.3c2.5,1.5,5.3,2.4,8.3,2.7V68.7z M110,46.5c-0.3-0.1-3.7-1.4-4-1.5
			c0.2-0.2,3.4-3.3,3.7-3.6c0,0.5-0.1,1-0.1,1.5C109.7,44,109.8,45.3,110,46.5 M143.6,50.6c-2.9,2.4-6.3,4-10.7,5.1
			c-0.9,0.2-1.9,0.4-2.8,0.5c-6.9,0.7-12.8-2.4-15.1-7.8c-0.3-0.6-0.5-1.3-0.6-1.9c-1-4.2-0.3-8.1,2-11.4c0.6-0.9,1.4-1.7,2.2-2.4
			c2.1-1.8,4.7-3.2,7.6-3.9c6.4-1.5,12.4,0.3,16.1,4.8c-0.1,0.1-12.7,13.6-12.7,13.6c0,0,0,0,0,0.1c0,0,0,0,0,0c0,0,0,0.1,0.1,0.1
			c1,0.2,2.7-0.2,3.3-0.3c2.9-0.7,4.6-2.1,6.2-4.1c0.1,0.1,6.2,5.6,6.5,5.9C144.9,49.4,144.2,50,143.6,50.6 M144.9,42.1
			c-0.2-0.2-2.4-2.2-2.5-2.3c0.1-0.1,2.9-3,2.9-3s0.4-0.4,0.7-0.7C145.8,36.7,145,41.8,144.9,42.1 M170.9,68.7
			c0-0.1-2.8-18.4-2.8-18.4c0,0,0-0.1-0.1-0.1c0,0-0.1,0-0.1,0.1c0,0-3.7,9.5-3.9,10c-0.2-0.4-5.8-12.5-5.8-12.5
			c0,0-0.1-0.1-0.1-0.1c0,0-0.1,0-0.1,0.1c0,0-2.3,14.4-2.3,14.6c-0.2,0-9.4-1.6-9.6-1.7c0-0.2,1.4-8.1,1.4-8.1c0,0,1.1-1,1.1-1
			l3.2-3.3c0,0,0,0,0-0.1v0c0,0,0-0.1,0-0.1c0,0-3-2.7-3-2.7c0-0.1,3.2-19.3,3.3-19.4h9.8c0,0.2,2.5,13.5,2.5,13.5
			c0,0,0.1,0.1,0.1,0.1c0,0,0.1,0,0.1-0.1c0,0,2.7-15.5,2.8-15.6h6.9c0,0.2,2.9,18.9,2.9,19c-3,3.5-4.7,7.7-4.7,11.9
			c0,1.2,0.1,2.3,0.4,3.4c1,4.1,3.5,7.4,7.1,9.3c0,0,0.9,0.4,1.1,0.5c0,0.1,0.3,2.1,0.4,2.3C180.9,70.3,171,68.8,170.9,68.7
			 M185,69.1L185,69.1L185,69.1z M195.2,62.7c-1.1,0.8-2.3,1.4-3.5,1.9c-2.4,0.9-4.9,1.2-7.2,0.7c-1.5-0.3-3-0.9-4.2-1.8
			c-2-1.5-3.4-3.6-4-6.1c-0.7-3-0.1-6.4,1.6-9.5c0.9-1.5,1.9-2.8,3.2-4c1.5-1.3,3.1-2.4,4.9-3.1c4.1-1.5,8.4-1.1,11.5,1.1
			c1.1,0.8,2,1.8,2.7,2.9c0.6,0.9,1,1.9,1.2,3c0.2,0.9,0.3,1.8,0.3,2.7c0,2.9-1,5.8-2.9,8.4C197.9,60.5,196.7,61.7,195.2,62.7
			 M217.4,80.1c-0.2-0.1-7-2.1-7.1-2.1c0-0.1-0.6-26.7-0.6-26.7c0-0.1,0-0.1-0.1-0.1c0,0-0.1,0-0.1,0.1c0,0-3.6,20.4-3.6,20.6
			c-0.2,0-7.6-1.2-7.7-1.2c0-0.2,0.6-5.9,0.6-5.9c4.4-3.6,6.8-8.9,6.8-14c0-1.2-0.1-2.4-0.4-3.5c-0.7-2.7-2.1-5.2-4.1-7
			c0-0.1,0.7-7,0.7-7c0,0,0-0.1-0.1-0.1c0,0-2.8-0.7-2.9-0.8c0-0.2,0.2-3.3,0.2-3.6c0.2,0,13.4,2.7,13.5,2.7
			c0,0.1,4.6,21.7,4.6,21.7c0,0,0,0.1,0.1,0.1c0,0,0.1,0,0.1-0.1c0,0,4.6-19.2,4.7-19.4c0.2,0,10,2.2,10.2,2.3
			C231.9,36.2,217.4,79.9,217.4,80.1"/>
		<linearGradient id="SVGID_113_" gradientUnits="userSpaceOnUse" x1="40.8631" y1="45.6423" x2="52.8955" y2="45.6423">
			<stop  offset="0" style="stop-color:#375B9F"/>
			<stop  offset="1" style="stop-color:#2A73AE"/>
		</linearGradient>
		<path class="st34" d="M41,38.7c-0.1,0-0.1,0.1-0.1,0.2l1.4,4.7c0,0,3.1,10.1,3.1,10.1c0,0.1,0.1,0.1,0.1,0.1c0.1,0,0.1,0,0.2,0
			c4.2-2.7,8.1-5.8,7-11.5c-0.3-1.8-1.6-3.3-3.4-4.2C46.9,37,43.8,37.2,41,38.7 M47.9,41.2c0.5,0.2,1.3,0.7,1.5,1.7
			c0.1,0.4,0.1,0.8,0.1,1.2c0,1.5-0.7,2.8-2.1,4.2c-0.2-0.6-1.8-5.7-1.8-5.7c0,0-0.4-1.4-0.5-1.7C46.1,40.8,47.1,40.9,47.9,41.2"/>
		<linearGradient id="SVGID_114_" gradientUnits="userSpaceOnUse" x1="120.7915" y1="40.5663" x2="133.9333" y2="40.5663">
			<stop  offset="0" style="stop-color:#375B9F"/>
			<stop  offset="1" style="stop-color:#2A73AE"/>
		</linearGradient>
		<path class="st35" d="M128,33.7c-2,0.1-3.8,1-5.2,2.4c-1.3,1.4-2,3.2-2,5.1c0,0.1,0,0.2,0,0.3c0.1,2,1,3.9,2.4,5.2l0.8,0.6
			c0.1,0.1,0.2,0,0.2,0l9.6-10.9c0.1-0.1,0.1-0.2,0-0.2l-0.5-0.5C131.9,34.3,130,33.6,128,33.7 M123.8,41.2c0-1.1,0.4-2.2,1.2-3.1
			c1.2-1.3,3-1.7,4.7-1.2c-0.4,0.4-5,5.7-5.4,6.2C124,42.5,123.8,41.9,123.8,41.2"/>
		<linearGradient id="SVGID_115_" gradientUnits="userSpaceOnUse" x1="182.6762" y1="48.8983" x2="196.6351" y2="48.8983">
			<stop  offset="0" style="stop-color:#375B9F"/>
			<stop  offset="1" style="stop-color:#2A73AE"/>
		</linearGradient>
		<path class="st36" d="M184.7,44.3c-1.2,1.1-1.9,2.6-2,4.2c-0.1,3.7,2.8,6.7,6.7,6.9c3.9,0.2,7.1-2.6,7.3-6.3c0-1.2-0.3-2.5-1-3.5
			c0-0.1-0.1-0.1-0.2-0.1c-0.1,0-0.1,0.1-0.1,0.2l0.1,0.9c-0.1,1.9-1.9,3.4-4.1,3.3c-1.1,0-2.2-0.5-2.9-1.3
			c-0.6-0.7-0.9-1.5-0.9-2.4c0.1-1.8,1.7-3.2,3.7-3.3c0.1,0,0.2-0.1,0.2-0.2c0-0.1-0.1-0.2-0.2-0.2l-1.3-0.2
			C188,42.3,186.1,43,184.7,44.3"/>
		<linearGradient id="SVGID_116_" gradientUnits="userSpaceOnUse" x1="66.9429" y1="52.2676" x2="80.8999" y2="52.2676">
			<stop  offset="0" style="stop-color:#375B9F"/>
			<stop  offset="1" style="stop-color:#2A73AE"/>
		</linearGradient>
		<path class="st37" d="M66.9,52.2c0,3.7,3.1,6.6,6.9,6.6c3.9,0,7-2.9,7-6.6c0-1.2-0.4-2.5-1.2-3.5c0-0.1-0.1-0.1-0.2-0.1
			c-0.1,0-0.1,0.1-0.1,0.2l0.1,0.9c0,1.9-1.8,3.5-3.9,3.5c-2.2,0-3.9-1.6-3.9-3.5c0-1.8,1.5-3.3,3.6-3.5c0.1,0,0.2-0.1,0.2-0.2
			c0-0.1-0.1-0.2-0.2-0.2L74,45.8C70.1,45.8,66.9,48.6,66.9,52.2"/>
	</g>
	<g>
		<defs>
			<rect id="SVGID_117_" x="7.2" y="4.3" width="229.9" height="117.5"/>
		</defs>
		<clipPath id="SVGID_118_">
			<use xlink:href="#SVGID_117_"  style="overflow:visible;"/>
		</clipPath>
		<path class="st38" d="M20,91.8c-1.7,0-3.1,1.4-3.1,3.1v23.9c0,1.7,1.4,3.1,3.1,3.1h212.1c1.7,0,3.1-1.4,3.1-3.1V94.9
			c0-1.7-1.4-3.1-3.1-3.1H20z"/>
		<path class="st39" d="M232.1,106.8V96.1c0-0.6-0.5-1.1-1.1-1.1H21.2c-0.6,0-1.1,0.5-1.1,1.1v10.8h-3.1v11.9c0,1.7,1.4,3.1,3.1,3.1
			h212.1c1.7,0,3.1-1.4,3.1-3.1v-11.9H232.1z"/>
		<rect x="21.6" y="96.5" class="st40" width="208.9" height="20.7"/>
		<rect x="21.6" y="106.8" class="st41" width="208.9" height="10.3"/>
		<path class="st41" d="M58.6,100.1c-0.9,0-3,0-3.8,1.9c-0.7-1.8-2.7-1.9-3.7-1.9c-0.8,0-2.7,0-3.5,1.4v-1.2H29.9v7.2H27v3.1
			c0,2,1.1,3,3.3,3c1.4,0,3-0.3,3.6-1.9c0.6,1.6,2.1,1.9,3.7,1.9c1.5,0,2.9-0.3,3.6-1.7v1.6h6.6v-1c0.9,1.1,2.6,1.2,3.4,1.2
			c1.9,0,3.2-0.3,3.8-1.7c0.8,1.7,2.8,1.7,3.7,1.7c1.1,0,4,0,4-3.3v-6.9C62.6,100.1,59.7,100.1,58.6,100.1 M47.1,104.8h-1.7v-0.6
			h1.7V104.8z M45.4,108.6h1.7v1h-1.7V108.6z"/>
		<path class="st41" d="M77.5,108.6h2v-3.8h-2v-0.6h2.2v-3.9h-6.5v1.8c-0.5-1.3-1.6-1.8-3.4-1.8h-4v13.2h4c1.9,0,2.9-0.5,3.4-1.8
			v1.8h6.6v-3.9h-2.4V108.6z"/>
		<path class="st41" d="M124.2,105.6h1v-2.3c0-2.8-2.1-3.1-3.7-3.1c-2.7,0-4,0.6-4,3.8v0.7c0,0.1,0,0.2,0,0.2l-0.6-4.6h-12.3v0.9
			c-0.7-0.7-1.8-0.9-3.3-0.9h-3.9v6l-0.8-6h-5.5l-0.6,4.1V103c0-2.6-2.1-2.9-3.7-2.9h-0.9c-2.2,0-3.3,1.2-3.3,3.7v6.4
			c0,2.1,1.2,3.4,3.3,3.4H87c1.1,0,1.9-0.2,2.5-0.6l-0.1,0.5h4.3l0.2-2.2l0.2,2.2h11.4v-4c0-0.9-0.2-1.5-0.6-1.9
			c0.4-0.5,0.6-1.3,0.6-2.3v-1.1h0.7v9.3h7.6l0.2-2.1l0.2,2.1h4.3l-0.1-0.5c0.6,0.5,1.5,0.7,2.9,0.7c2.3,0,3.9-0.7,3.9-4.1
			C125.5,107.2,125.2,106.2,124.2,105.6 M87.1,107.4V106h3.3l-0.2,1.4H87.1z M110.6,104.1h0.3l-0.3,2.2V104.1z M117.9,106.5
			c0.2,0.6,0.5,1,0.9,1.3H118L117.9,106.5z"/>
		<path class="st41" d="M223.9,105.6h1v-2.3c0-2.8-2.1-3.1-3.7-3.1c-1.7,0-2.8,0.2-3.4,1.2v-1.1h-6.5v9.3h-1.6v-9.3h-4.3v1.7
			c-0.4-1.2-1.4-1.7-3.3-1.7h-4.5v6l-0.8-6h-5.5l-0.9,6.6v-6.6h-9.2v1.5c-0.8-1.6-2.8-1.7-3.7-1.7c-0.9,0-3,0-3.7,1.8v-1.7h-4.3v1.1
			c-0.7-1.1-2.1-1.3-3.2-1.3h-0.9c-1.4,0-2.4,0.5-2.9,1.6c-0.6-1.3-2.1-1.6-3.4-1.6h-0.9c-1.4,0-2.3,0.5-2.9,1.4v-1.3h-6.5v9.3h-1.6
			v-9.3h-4.3v1.3c-0.9-1.4-2.7-1.5-3.6-1.5c-0.8,0-2.8,0-3.6,1.5c-0.6-1.3-2.1-1.5-3.4-1.5h-0.9c-2.2,0-3.3,1.2-3.3,3.7v6.4
			c0,2.1,1.2,3.4,3.3,3.4h0.9c1.8,0,2.8-0.5,3.3-1.7c0.8,1.6,2.8,1.7,3.7,1.7c0.8,0,2.7,0,3.6-1.5v1.3h12.5v-1
			c0.6,0.7,1.5,1.2,2.7,1.2h0.9c1.8,0,2.8-0.5,3.3-1.7c0.5,1.1,1.5,1.7,3,1.7h0.9c1.7,0,2.7-0.5,3.2-1.5v1.4h4.3v-1.7
			c0.7,1.8,2.8,1.8,3.7,1.8c0.9,0,2.9,0,3.7-1.7v1.5H194l0.2-2.1l0.2,2.1h8.2c1.6,0,2.5-0.6,2.9-1.5v1.5H218v-0.9
			c0.6,0.7,1.6,1.1,3.3,1.1c2.3,0,3.9-0.7,3.9-4.1C225.1,107.2,224.9,106.2,223.9,105.6 M132.8,106h2.8v1.4h-2.8V106z M155.1,104.8
			h-1.7v-0.6h1.7V104.8z M153.3,108.6h1.7v1h-1.7V108.6z M159.4,106h2.8v1.4h-2.8V106z M166.6,106h3.1v1.4h-3.1V106z M205.2,106.5
			c0.1-0.2,0.2-0.4,0.3-0.6v1.1C205.4,106.9,205.3,106.7,205.2,106.5 M217.3,104.8h-1.7v-0.6h1.7v0.5
			C217.3,104.7,217.3,104.7,217.3,104.8 M215.6,108.6h1.7v1h-1.7V108.6z M217.6,107.8v-1c0.2,0.4,0.4,0.7,0.8,1H217.6z"/>
		<path class="st42" d="M27.9,108.4H30v1.7c0,0.3,0.1,0.4,0.4,0.4c0.3,0,0.4-0.2,0.4-0.4v-9h2.4v9c0,1.8-0.8,2.4-2.8,2.4
			c-2,0-2.4-0.8-2.4-2V108.4z"/>
		<path class="st42" d="M40.6,109.8c0,2.5-1.1,2.8-3,2.8c-1.9,0-3-0.3-3-2.8v-8.6h2.4v8.7c0,0.4,0.2,0.7,0.6,0.7
			c0.5,0,0.6-0.3,0.6-0.7v-8.7h2.4V109.8z"/>
		<polygon class="st42" points="42.1,101.2 46.7,101.2 46.7,103.2 44.5,103.2 44.5,105.7 46.5,105.7 46.5,107.6 44.5,107.6 
			44.5,110.4 46.8,110.4 46.8,112.5 42.1,112.5 		"/>
		<path class="st42" d="M48,103.4c0-1.8,1.1-2.3,3.1-2.3c1.9,0,3.1,0.3,3.1,2.7v1.1h-2.3v-1.2c0-0.5-0.2-0.7-0.8-0.7
			c-0.5,0-0.6,0.1-0.6,0.7v6.5c0,0.3,0.2,0.4,0.6,0.4c0.6,0,0.8-0.1,0.8-0.4v-1.8h-0.7v-2.1h3v3.6c0,2.2-0.8,2.6-3.1,2.6
			c-2,0-3.1-0.5-3.1-2.3V103.4z"/>
		<path class="st42" d="M55.5,103.4c0-1.8,1.1-2.3,3.1-2.3s3.1,0.5,3.1,2.3v6.9c0,1.8-1.1,2.3-3.1,2.3s-3.1-0.5-3.1-2.3V103.4z
			 M59.2,103.5c0-0.4-0.2-0.5-0.6-0.5c-0.4,0-0.6,0.1-0.6,0.5v6.6c0,0.4,0.2,0.5,0.6,0.5c0.4,0,0.6-0.1,0.6-0.5V103.5z"/>
		<path class="st42" d="M66.7,101.2h3.1c2.2,0,2.9,0.5,2.9,4.2v2.8c0,3.7-0.7,4.2-2.9,4.2h-3.1V101.2z M69.1,110.4h0.6
			c0.5,0,0.6-0.2,0.6-1.1v-5.1c0-0.8-0.1-1.1-0.6-1.1h-0.6V110.4z"/>
		<polygon class="st42" points="74.2,101.2 78.8,101.2 78.8,103.2 76.6,103.2 76.6,105.7 78.6,105.7 78.6,107.6 76.6,107.6 
			76.6,110.4 78.9,110.4 78.9,112.5 74.2,112.5 		"/>
		<path class="st42" d="M83.7,103.8c0-1.8,0.6-2.7,2.4-2.7H87c2.1,0,2.7,0.6,2.7,1.9v2.1h-2.3v-1.5c0-0.3-0.2-0.5-0.6-0.5
			c-0.4,0-0.6,0.1-0.6,0.5v6.5c0,0.3,0.2,0.5,0.6,0.5c0.4,0,0.6-0.1,0.6-0.5v-1.8h2.3v1.7c0,2-0.7,2.6-2.7,2.6h-0.9
			c-1.8,0-2.4-1-2.4-2.4V103.8z"/>
		<path class="st42" d="M92.1,101.2h3.9l1.6,11.3h-2.4l-0.3-2.7h-1.6l-0.3,2.7h-2.4L92.1,101.2z M94,102.7L94,102.7l-0.6,5.1h1.1
			L94,102.7z"/>
		<path class="st42" d="M98.5,101.2h2.9c2.6,0,3.3,0.6,3.3,2.7v1.4c0,1.7-0.6,2.1-1.6,2.3v0c1.1,0.2,1.6,0.5,1.6,1.8v3.1h-2.4v-3.2
			c0-0.5-0.2-0.7-1-0.7h-0.4v3.9h-2.4V101.2z M100.9,106.6h0.5c0.8,0,1-0.2,1-1V104c0-0.6-0.2-0.8-0.7-0.8h-0.7V106.6z"/>
		<polygon class="st42" points="107.3,103.2 105.7,103.2 105.7,101.2 111.4,101.2 111.4,103.2 109.7,103.2 109.7,112.5 107.3,112.5 
					"/>
		<path class="st42" d="M112.3,101.2h3.9l1.6,11.3h-2.4l-0.3-2.7h-1.5l-0.3,2.7h-2.4L112.3,101.2z M114.3,102.7L114.3,102.7
			l-0.6,5.1h1.1L114.3,102.7z"/>
		<path class="st42" d="M120.8,109.6c0,0.8,0,1.1,0.7,1.1c0.5,0,0.7-0.2,0.7-0.7v-1.2c0-0.8-0.2-0.8-1.4-1.2c-1.9-0.5-2.2-1-2.2-3
			V104c0-2.6,0.7-2.9,3-2.9c2.1,0,2.8,0.6,2.8,2.2v1.4h-2.1v-0.5c0-1-0.1-1.1-0.7-1.1c-0.6,0-0.7,0.3-0.7,0.8v0.7
			c0,0.7,0.2,0.8,0.9,1c2.5,0.7,2.8,0.9,2.8,3.8c0,2.7-0.9,3.2-2.9,3.2c-2.6,0-3.1-0.7-3.1-2.9v-0.9h2.2V109.6z"/>
		<path class="st42" d="M129.4,103.8c0-1.8,0.6-2.7,2.4-2.7h0.9c2.1,0,2.7,0.6,2.7,1.9v2.1h-2.3v-1.5c0-0.3-0.2-0.5-0.6-0.5
			c-0.4,0-0.6,0.1-0.6,0.5v6.5c0,0.3,0.2,0.5,0.6,0.5c0.4,0,0.6-0.1,0.6-0.5v-1.8h2.3v1.7c0,2-0.7,2.6-2.7,2.6h-0.9
			c-1.8,0-2.4-1-2.4-2.4V103.8z"/>
		<path class="st42" d="M136.6,103.4c0-1.8,1.1-2.3,3.1-2.3s3.1,0.5,3.1,2.3v6.9c0,1.8-1.1,2.3-3.1,2.3s-3.1-0.5-3.1-2.3V103.4z
			 M140.3,103.5c0-0.4-0.2-0.5-0.6-0.5c-0.4,0-0.6,0.1-0.6,0.5v6.6c0,0.4,0.2,0.5,0.6,0.5c0.4,0,0.6-0.1,0.6-0.5V103.5z"/>
		<polygon class="st42" points="144.2,101.2 146.6,101.2 146.6,110.4 148.9,110.4 148.9,112.5 144.2,112.5 		"/>
		<polygon class="st42" points="150,101.2 154.6,101.2 154.6,103.2 152.4,103.2 152.4,105.7 154.4,105.7 154.4,107.6 152.4,107.6 
			152.4,110.4 154.8,110.4 154.8,112.5 150,112.5 		"/>
		<path class="st42" d="M156,103.8c0-1.8,0.6-2.7,2.4-2.7h0.9c2.1,0,2.7,0.6,2.7,1.9v2.1h-2.3v-1.5c0-0.3-0.2-0.5-0.6-0.5
			c-0.4,0-0.6,0.1-0.6,0.5v6.5c0,0.3,0.2,0.5,0.6,0.5c0.4,0,0.6-0.1,0.6-0.5v-1.8h2.3v1.7c0,2-0.7,2.6-2.7,2.6h-0.9
			c-1.8,0-2.4-1-2.4-2.4V103.8z"/>
		<path class="st42" d="M163.2,103.8c0-1.8,0.6-2.7,2.4-2.7h0.9c2.1,0,2.7,0.6,2.7,1.9v2.1h-2.3v-1.5c0-0.3-0.2-0.5-0.6-0.5
			c-0.4,0-0.6,0.1-0.6,0.5v6.5c0,0.3,0.2,0.5,0.6,0.5c0.4,0,0.6-0.1,0.6-0.5v-1.8h2.3v1.7c0,2-0.7,2.6-2.7,2.6h-0.9
			c-1.8,0-2.4-1-2.4-2.4V103.8z"/>
		<rect x="170.6" y="101.2" class="st42" width="2.4" height="11.3"/>
		<path class="st42" d="M174.6,103.4c0-1.8,1.1-2.3,3.1-2.3s3.1,0.5,3.1,2.3v6.9c0,1.8-1.1,2.3-3.1,2.3s-3.1-0.5-3.1-2.3V103.4z
			 M178.3,103.5c0-0.4-0.2-0.5-0.6-0.5c-0.4,0-0.6,0.1-0.6,0.5v6.6c0,0.4,0.2,0.5,0.6,0.5c0.4,0,0.6-0.1,0.6-0.5V103.5z"/>
		<polygon class="st42" points="184.4,103.7 184.3,103.7 184.5,112.5 182.3,112.5 182.3,101.2 185.8,101.2 187.5,110 187.5,109.9 
			187.4,101.2 189.6,101.2 189.6,112.5 186.1,112.5 		"/>
		<path class="st42" d="M192.3,101.2h3.9l1.6,11.3h-2.4l-0.3-2.7h-1.5l-0.3,2.7h-2.4L192.3,101.2z M194.2,102.7L194.2,102.7
			l-0.6,5.1h1.1L194.2,102.7z"/>
		<path class="st42" d="M198.7,101.2h3.5c2.1,0,2.6,0.5,2.6,2.7c0,1.5-0.1,2.4-1.6,2.7v0c1.5,0.1,1.7,1.3,1.7,2.6
			c0,2.4-0.5,3.2-2.4,3.2h-3.9V101.2z M201.1,105.8h0.6c0.7,0,0.8-0.2,0.8-1v-0.7c0-0.7-0.1-1-0.8-1h-0.6V105.8z M201.1,110.5h0.7
			c0.6,0,0.7-0.2,0.7-1v-0.8c0-0.8-0.2-1-0.7-1h-0.7V110.5z"/>
		<polygon class="st42" points="206.4,101.2 208.8,101.2 208.8,110.4 211.1,110.4 211.1,112.5 206.4,112.5 		"/>
		<polygon class="st42" points="212.3,101.2 216.9,101.2 216.9,103.2 214.7,103.2 214.7,105.7 216.7,105.7 216.7,107.6 214.7,107.6 
			214.7,110.4 217,110.4 217,112.5 212.3,112.5 		"/>
		<path class="st42" d="M220.4,109.6c0,0.8,0,1.1,0.7,1.1c0.5,0,0.7-0.2,0.7-0.7v-1.2c0-0.8-0.2-0.8-1.4-1.2c-1.9-0.5-2.2-1-2.2-3
			V104c0-2.6,0.7-2.9,3-2.9c2.1,0,2.8,0.6,2.8,2.2v1.4h-2.1v-0.5c0-1-0.1-1.1-0.7-1.1c-0.6,0-0.7,0.3-0.7,0.8v0.7
			c0,0.7,0.2,0.8,0.9,1c2.5,0.7,2.8,0.9,2.8,3.8c0,2.7-0.9,3.2-2.9,3.2c-2.6,0-3.1-0.7-3.1-2.9v-0.9h2.2V109.6z"/>
	</g>
</g>
</svg>
